<svg id="Capa_1" enable-background="new 0 0 512 512" height="512" viewBox="0 0 512 512" width="512" xmlns="http://www.w3.org/2000/svg"><g><path d="m432.1 447.78c-7.854 0-61.434-1.021-109.369-27.783-1.207-.674-2.316-1.512-3.294-2.49l-224.944-224.944c-.978-.978-1.816-2.087-2.491-3.294-28.343-50.769-27.813-107.868-27.777-110.274.123-8.106 6.665-14.648 14.772-14.771 2.399-.033 59.503-.566 110.272 27.778 1.208.674 2.316 1.512 3.294 2.49l224.943 224.943c.979.978 1.816 2.087 2.49 3.294 28.344 50.769 27.814 107.867 27.777 110.272-.122 8.107-6.664 14.649-14.771 14.771-.133.004-.438.008-.902.008z" fill="#ff38e3"/><path d="m417.507 319.437-161.507-161.507v196.14l63.437 63.437c.978.979 2.087 1.816 3.294 2.49 47.935 26.763 101.515 27.783 109.369 27.783.465 0 .77-.004.903-.006 8.107-.122 14.649-6.664 14.771-14.771.037-2.405.566-59.504-27.777-110.272-.674-1.208-1.512-2.317-2.49-3.294z" fill="#d100b3"/><path d="m79.899 447.78c-.465 0-.769-.004-.903-.006-8.106-.122-14.648-6.664-14.771-14.771-.036-2.405-.566-59.505 27.778-110.272.674-1.207 1.513-2.316 2.491-3.294l224.943-224.944c.978-.979 2.087-1.816 3.295-2.491 50.767-28.343 107.854-27.809 110.273-27.776 8.106.122 14.648 6.665 14.771 14.771.036 2.405.565 59.505-27.778 110.272-.674 1.207-1.512 2.316-2.49 3.294l-224.945 224.944c-.978.979-2.086 1.816-3.294 2.49-47.933 26.761-101.51 27.783-109.37 27.783z" fill="#ff38e3"/><path d="m433.005 64.226c-2.419-.032-59.507-.566-110.273 27.776-1.208.675-2.317 1.513-3.295 2.491l-63.437 63.437v196.14l161.507-161.506c.979-.978 1.816-2.087 2.49-3.294 28.344-50.768 27.814-107.867 27.778-110.272-.122-8.107-6.664-14.65-14.77-14.772z" fill="#d100b3"/><path d="m503.709 242.584c-17.699-8.851-33.589-21.695-45.949-37.146-24.326-30.408-59.33-49.46-97.6-53.573-4.091-38.278-23.111-73.236-53.597-97.625-15.452-12.362-28.297-28.251-37.146-45.949-2.542-5.081-7.735-8.291-13.417-8.291s-10.875 3.21-13.417 8.292c-8.849 17.697-21.693 33.586-37.146 45.948-30.487 24.389-49.507 59.347-53.598 97.625-38.27 4.113-73.274 23.165-97.601 53.573-12.36 15.45-28.249 28.295-45.948 37.146-5.08 2.541-8.29 7.734-8.29 13.416s3.21 10.875 8.292 13.416c17.7 8.851 33.588 21.695 45.949 37.146 24.326 30.408 59.331 49.46 97.6 53.573 4.091 38.278 23.111 73.236 53.598 97.625 15.452 12.362 28.297 28.251 37.146 45.948 2.54 5.082 7.733 8.292 13.415 8.292s10.875-3.21 13.416-8.291c8.85-17.698 21.694-33.587 37.146-45.949 30.487-24.389 49.508-59.347 53.598-97.625 38.27-4.113 73.274-23.165 97.6-53.573 12.36-15.45 28.25-28.295 45.949-37.146 5.081-2.541 8.291-7.734 8.291-13.416s-3.21-10.875-8.291-13.416z" fill="#ffb6f8"/><path d="m503.709 242.584c-17.699-8.851-33.589-21.695-45.949-37.146-24.326-30.408-59.33-49.46-97.6-53.573-4.091-38.278-23.111-73.236-53.597-97.625-15.452-12.362-28.297-28.251-37.146-45.949-2.542-5.081-7.735-8.291-13.417-8.291v512c5.682 0 10.875-3.21 13.416-8.291 8.85-17.698 21.694-33.587 37.146-45.949 30.487-24.389 49.508-59.347 53.598-97.625 38.27-4.113 73.274-23.165 97.6-53.573 12.36-15.45 28.25-28.295 45.949-37.146 5.081-2.541 8.291-7.734 8.291-13.416s-3.21-10.875-8.291-13.416z" fill="#ff7cec"/><circle cx="256" cy="256" fill="#ffdecf" r="135"/><path d="m391 256c0-74.439-60.561-135-135-135v270c74.439 0 135-60.561 135-135z" fill="#ffcdbe"/><path d="m256 321c-71.354 0-127.849-51.813-130.219-54.02-3.049-2.837-4.781-6.815-4.781-10.98s1.732-8.143 4.781-10.98c2.37-2.207 58.865-54.02 130.219-54.02s127.849 51.813 130.219 54.02c3.05 2.838 4.781 6.815 4.781 10.98s-1.731 8.143-4.781 10.98c-2.37 2.207-58.865 54.02-130.219 54.02z" fill="#f9f9f9"/><path d="m386.219 266.98c3.05-2.838 4.781-6.815 4.781-10.98s-1.731-8.143-4.781-10.98c-2.37-2.207-58.865-54.02-130.219-54.02v130c71.354 0 127.849-51.813 130.219-54.02z" fill="#e2dff4"/><circle cx="256" cy="256" fill="#7c84e8" r="65"/><path d="m321 256c0-35.841-29.159-65-65-65v130c35.841 0 65-29.159 65-65z" fill="#515be0"/><circle cx="256" cy="256" fill="#5e54ac" r="35"/><path d="m291 256c0-19.299-15.701-35-35-35v70c19.299 0 35-15.701 35-35z" fill="#38336b"/></g></svg>