<svg id="Capa_1" enable-background="new 0 0 512 512" height="512" viewBox="0 0 512 512" width="512" xmlns="http://www.w3.org/2000/svg"><g><path d="m256 491c-3.583 0-7.166-1.277-10.016-3.833-2.037-1.827-50.028-45.425-62.332-104.604-.208-1.005-.314-2.028-.314-3.054v-53.509c0-8.284 6.716-15 15-15h115.322c8.284 0 15 6.716 15 15v53.509c0 1.025-.105 2.049-.314 3.054-12.304 59.18-60.294 102.777-62.331 104.604-2.849 2.556-6.432 3.833-10.015 3.833z" fill="#ffb6f8"/><path d="m313.661 311h-57.661v180c3.583 0 7.166-1.277 10.016-3.833 2.037-1.827 50.027-45.425 62.331-104.604.209-1.005.314-2.028.314-3.054v-53.509c0-8.284-6.716-15-15-15z" fill="#ff7cec"/><path d="m508.171 325.989c-1.326-1.48-33.012-36.457-78.758-54.561-1.757-.695-3.63-1.053-5.52-1.053h-167.893-167.894c-1.89 0-3.763.357-5.52 1.053-45.745 18.104-77.431 53.08-78.757 54.561-5.104 5.695-5.106 14.319-.004 20.017 2.386 2.664 59.254 65.244 131.675 65.244 54.518 0 100.217-35.46 120.5-54.131 20.283 18.671 65.982 54.131 120.5 54.131 72.421 0 129.289-62.58 131.675-65.244 5.101-5.697 5.099-14.321-.004-20.017z" fill="#ff7cec"/><path d="m376.5 411.25c72.421 0 129.289-62.58 131.675-65.244 5.102-5.697 5.1-14.321-.004-20.017-1.326-1.48-33.012-36.457-78.758-54.561-1.757-.695-3.63-1.053-5.52-1.053h-167.893v86.743c20.283 18.672 65.982 54.132 120.5 54.132z" fill="#ff38e3"/><path d="m488.346 126.609c-1.816-.192-45.053-4.554-93.836 8.013-3.287.847-6.189 2.783-8.233 5.493l-130.277 172.744-130.275-172.745c-2.044-2.71-4.947-4.646-8.234-5.493-48.784-12.567-92.019-8.204-93.836-8.013-8.014.847-13.927 7.874-13.392 15.914.282 4.229 7.683 104.23 75.528 161.16 49.184 41.271 114.618 47.388 149.075 47.388 9.6 0 16.801-.476 20.569-.798.19-.016.377-.044.565-.068.188.023.375.052.565.068 3.77.322 10.966.798 20.569.798 34.459 0 99.895-6.12 149.075-47.388 67.846-56.93 75.245-156.931 75.527-161.16.537-8.039-5.376-15.067-13.39-15.913z" fill="#ffb6f8"/><path d="m488.346 126.609c-1.816-.192-45.053-4.554-93.836 8.013-3.287.847-6.189 2.783-8.233 5.493l-130.277 172.744v37.346c.188.023.375.052.565.068 3.77.322 10.966.798 20.569.798 34.459 0 99.895-6.12 149.075-47.388 67.846-56.93 75.245-156.931 75.527-161.16.537-8.04-5.376-15.068-13.39-15.914z" fill="#ff7cec"/><path d="m396.772 58.687c-2.914-7.515-11.245-11.383-18.862-8.765-1.706.587-42.227 14.726-80.827 46.312-2.604 2.131-4.417 5.076-5.146 8.362l-35.937 162.101-35.937-162.1c-.729-3.286-2.541-6.231-5.145-8.362-38.601-31.587-79.122-45.726-80.828-46.312-7.621-2.619-15.95 1.25-18.862 8.765-1.526 3.937-36.943 97.331.342 177.289 37.285 79.96 131.595 112.861 135.592 114.223 1.582.539 3.214.802 4.835.802 1.645 0 3.273-.285 4.827-.813l.012.011c3.997-1.361 98.307-34.263 135.592-114.223 37.286-79.959 1.869-173.354.344-177.29z" fill="#ff7cec"/><path d="m260.825 350.187.012.011c3.997-1.361 98.307-34.263 135.592-114.223 37.285-79.958 1.868-173.353.343-177.289-2.914-7.515-11.245-11.383-18.862-8.765-1.706.587-42.227 14.726-80.827 46.312-2.604 2.131-4.417 5.076-5.146 8.362l-35.937 162.102v84.303c1.644 0 3.272-.285 4.825-.813z" fill="#ff38e3"/><path d="m256 351c-3.741 0-7.483-1.392-10.385-4.176-3.046-2.922-74.615-72.599-74.615-160.824s71.569-157.901 74.615-160.824c5.804-5.568 14.965-5.568 20.77 0 3.047 2.923 74.615 72.6 74.615 160.824s-71.568 157.901-74.615 160.824c-2.903 2.785-6.644 4.176-10.385 4.176z" fill="#ffb6f8"/><path d="m266.385 25.176c-2.902-2.784-6.644-4.176-10.385-4.176v330c3.741 0 7.482-1.392 10.385-4.176 3.047-2.922 74.615-72.599 74.615-160.824s-71.568-157.901-74.615-160.824z" fill="#ff7cec"/></g></svg>