<svg id="Capa_1" enable-background="new 0 0 512 512" height="512" viewBox="0 0 512 512" width="512" xmlns="http://www.w3.org/2000/svg"><g><path d="m355.826 512c-1.294 0-2.604-.168-3.899-.517-1.453-.391-34.731-9.496-68.305-31.166h-55.246c-33.573 21.668-66.851 30.775-68.303 31.166-6.567 1.77-13.503-1.105-16.897-6.999-.751-1.304-17.843-31.274-26.261-70.336l-39.064-39.063c-39.061-8.419-69.031-25.511-70.335-26.261-5.894-3.395-8.766-10.33-6.998-16.897.391-1.452 9.497-34.73 31.165-68.303v-55.246c-21.669-33.573-30.775-66.851-31.166-68.303-1.768-6.567 1.105-13.503 6.998-16.897 1.304-.75 31.274-17.843 70.337-26.261l39.064-39.064c8.418-39.061 25.51-69.032 26.261-70.335 3.394-5.894 10.328-8.768 16.897-6.999 1.453.391 34.731 9.498 68.303 31.166h55.245c33.574-21.668 66.852-30.775 68.305-31.166 6.57-1.769 13.503 1.104 16.897 6.999.751 1.304 17.843 31.273 26.261 70.335l39.065 39.064c39.061 8.418 69.032 25.511 70.335 26.261 5.894 3.395 8.767 10.33 6.999 16.897-.391 1.452-9.497 34.73-31.166 68.303v55.246c21.668 33.572 30.775 66.851 31.165 68.303 1.768 6.567-1.105 13.503-6.999 16.897-1.304.75-31.274 17.843-70.336 26.26l-39.064 39.064c-8.417 39.062-25.51 69.033-26.261 70.336-2.724 4.731-7.73 7.516-12.997 7.516z" fill="#ff38e3"/><path d="m504.484 143.177c-1.303-.75-31.274-17.843-70.335-26.261l-39.065-39.064c-8.418-39.062-25.51-69.032-26.261-70.335-3.393-5.895-10.327-8.767-16.897-6.999-1.453.391-34.731 9.498-68.305 31.166h-27.621v448.634h27.622c33.574 21.67 66.852 30.775 68.305 31.166 1.295.349 2.605.517 3.899.517 5.267 0 10.273-2.784 12.997-7.516.751-1.304 17.843-31.274 26.261-70.336l39.064-39.064c39.062-8.417 69.032-25.51 70.336-26.26 5.893-3.395 8.767-10.33 6.998-16.897-.391-1.452-9.497-34.731-31.165-68.303v-55.246c21.668-33.573 30.775-66.851 31.166-68.303 1.768-6.569-1.105-13.505-6.999-16.899z" fill="#d100b3"/><path d="m256 512c-3.224 0-6.448-1.036-9.143-3.108-1.875-1.441-42.046-32.697-63.235-78.155-47.127 17.16-97.633 10.856-99.977 10.55-6.743-.881-12.05-6.188-12.931-12.931-.306-2.345-6.611-52.851 10.549-99.978-45.457-21.189-76.712-61.36-78.154-63.234-4.145-5.391-4.145-12.896 0-18.287 1.441-1.874 32.697-42.045 78.155-63.234-17.161-47.128-10.856-97.634-10.55-99.979.881-6.742 6.188-12.05 12.931-12.931 2.346-.305 52.851-6.609 99.978 10.55 21.19-45.457 61.36-76.713 63.234-78.153 5.391-4.146 12.896-4.146 18.287 0 1.874 1.44 42.045 32.696 63.234 78.153 47.126-17.159 97.633-10.855 99.978-10.55 6.743.881 12.05 6.188 12.931 12.931.306 2.345 6.61 52.852-10.55 99.979 45.457 21.189 76.713 61.36 78.154 63.234 4.145 5.391 4.145 12.896 0 18.287-1.441 1.874-32.697 42.045-78.154 63.234 17.16 47.127 10.855 97.633 10.549 99.978-.881 6.742-6.188 12.05-12.931 12.931-2.344.307-52.854 6.605-99.977-10.55-21.19 45.458-61.361 76.714-63.236 78.155-2.694 2.072-5.918 3.108-9.142 3.108z" fill="#ff7cec"/><path d="m430.737 183.623c17.16-47.127 10.856-97.634 10.55-99.979-.881-6.742-6.188-12.05-12.931-12.931-2.345-.306-52.852-6.609-99.978 10.55-21.189-45.457-61.36-76.713-63.234-78.153-2.696-2.073-5.92-3.11-9.144-3.11v512c3.224 0 6.448-1.036 9.143-3.108 1.875-1.441 42.046-32.697 63.236-78.155 47.123 17.155 97.633 10.856 99.977 10.55 6.743-.881 12.05-6.188 12.931-12.931.306-2.345 6.61-52.851-10.549-99.978 45.457-21.189 76.712-61.36 78.154-63.234 4.145-5.391 4.145-12.896 0-18.287-1.442-1.874-32.698-42.045-78.155-63.234z" fill="#ff38e3"/><path d="m320.472 426.647c-1.294 0-2.603-.168-3.898-.516-1.581-.426-34.32-9.436-60.574-31.896-26.254 22.461-58.993 31.471-60.574 31.896-6.568 1.762-13.501-1.105-16.895-6.998-.817-1.419-17.596-30.939-20.278-65.386-34.45-2.681-63.966-19.461-65.385-20.278-5.893-3.395-8.765-10.328-6.998-16.895.425-1.582 9.435-34.32 31.896-60.574-22.461-26.254-31.471-58.992-31.896-60.574-1.767-6.566 1.105-13.5 6.998-16.895 1.419-.817 30.939-17.596 65.386-20.278 2.682-34.446 19.461-63.967 20.278-65.386 3.394-5.892 10.329-8.762 16.895-6.998 1.581.426 34.319 9.436 60.573 31.896 26.254-22.461 58.993-31.471 60.574-31.896 6.566-1.763 13.5 1.105 16.895 6.998.817 1.419 17.596 30.939 20.278 65.386 34.45 2.681 63.967 19.461 65.386 20.278 5.893 3.395 8.765 10.328 6.998 16.895-.425 1.581-9.435 34.32-31.896 60.574 22.46 26.254 31.47 58.992 31.896 60.574 1.767 6.566-1.105 13.5-6.998 16.895-1.419.817-30.939 17.596-65.386 20.277-2.682 34.447-19.461 63.968-20.278 65.387-2.725 4.73-7.731 7.514-12.997 7.514z" fill="#ffb6f8"/><path d="m419.133 178.532c-1.419-.817-30.936-17.598-65.386-20.278-2.682-34.446-19.461-63.967-20.278-65.386-3.395-5.893-10.329-8.761-16.895-6.998-1.581.426-34.32 9.435-60.574 31.896v276.469c26.254 22.461 58.993 31.471 60.574 31.896 1.295.348 2.604.516 3.898.516 5.266 0 10.272-2.784 12.997-7.514.817-1.419 17.596-30.939 20.278-65.387 34.447-2.682 63.967-19.46 65.386-20.277 5.893-3.395 8.765-10.328 6.998-16.895-.425-1.582-9.435-34.32-31.896-60.574 22.461-26.254 31.47-58.993 31.896-60.574 1.766-6.566-1.106-13.5-6.998-16.894z" fill="#ff7cec"/><circle cx="256" cy="256" fill="#f9f9f9" r="75"/><path d="m331 256c0-41.355-33.645-75-75-75v150c41.355 0 75-33.644 75-75z" fill="#e2dff4"/><circle cx="256" cy="256" fill="#ff7cec" r="45"/><path d="m301 256c0-24.813-20.187-45-45-45v90c24.813 0 45-20.186 45-45z" fill="#ff38e3"/></g></svg>